<svg width="363" height="373" viewBox="0 0 363 373" fill="none" xmlns="http://www.w3.org/2000/svg">
<mask id="path-1-outside-1_636_3049" maskUnits="userSpaceOnUse" x="0" y="0.464844" width="363" height="372" fill="black">
<rect fill="white" y="0.464844" width="363" height="372"/>
<path fill-rule="evenodd" clip-rule="evenodd" d="M255.52 6.46484H296.696V15.0536C304.859 16.7709 312.3 19.6171 319.018 23.5923C330.916 30.521 340.084 40.2492 346.523 52.7768C352.962 65.2345 356.181 79.7918 356.181 96.4486C356.181 112.966 352.962 127.488 346.523 140.015C340.084 152.473 330.916 162.201 319.018 169.2C307.19 176.129 293.123 179.593 276.816 179.593C260.509 179.593 246.407 176.129 234.509 169.2C222.681 162.201 213.548 152.473 207.109 140.015C200.67 127.488 197.451 112.966 197.451 96.4486C197.451 79.7918 200.67 65.2345 207.109 52.7768C213.548 40.2492 222.681 30.521 234.509 23.5923C240.88 19.8444 247.884 17.1 255.52 15.3592V6.46484ZM255.52 75.092V56.0795C251.753 60.0335 248.808 65.0215 246.686 71.0434C244.167 78.392 242.907 86.7555 242.907 96.1337C242.907 105.512 244.167 113.875 246.686 121.224C249.276 128.573 253.09 134.382 258.129 138.651C263.238 142.85 269.537 144.95 277.026 144.95C284.444 144.95 290.638 142.85 295.607 138.651C300.576 134.382 304.321 128.573 306.84 121.224C309.43 113.875 310.724 105.512 310.724 96.1337C310.724 86.7555 309.43 78.392 306.84 71.0434C304.508 64.2416 301.127 58.7588 296.696 54.5952V75.092H255.52ZM57.3067 176.444V83.2215C57.3767 76.2928 58.6715 70.3789 61.191 65.4798C63.7805 60.5107 67.3499 56.7314 71.899 54.1419C76.5181 51.5524 81.8371 50.2577 87.856 50.2577C96.8143 50.2577 103.848 53.0571 108.957 58.6561C114.066 64.185 116.586 71.8836 116.516 81.7517V176.444H161.237V73.7732C161.237 61.2456 158.928 50.4676 154.309 41.4393C149.689 32.341 143.216 25.3423 134.887 20.4432C126.559 15.5442 116.796 13.0946 105.598 13.0946C93.6299 13.0946 83.4468 15.8591 75.0484 21.3881C66.65 26.847 60.6661 34.2657 57.0968 43.6439H55.2071V15.1942H12.5851V176.444H57.3067ZM304.873 196.511V289.734C304.803 296.662 303.509 302.576 300.989 307.475C298.4 312.444 294.83 316.224 290.281 318.813C285.662 321.403 280.343 322.697 274.324 322.697C265.366 322.697 258.332 319.898 253.223 314.299C248.114 308.77 245.594 301.071 245.664 291.203V196.511H200.943L200.943 299.182C200.943 311.709 203.252 322.487 207.872 331.516C212.491 340.614 218.964 347.613 227.293 352.512C235.621 357.411 245.384 359.86 256.582 359.86C268.55 359.86 278.733 357.096 287.132 351.567C295.53 346.108 301.514 338.689 305.083 329.311H306.973L306.973 357.761L349.595 357.761L349.595 196.511H304.873ZM85.3651 193.363C101.672 193.363 115.774 196.827 127.672 203.756C139.5 210.754 148.633 220.483 155.072 232.94C161.511 245.468 164.73 259.99 164.73 276.507C164.73 293.164 161.511 307.721 155.072 320.179C148.633 332.706 139.5 342.435 127.672 349.363C121.299 353.112 114.294 355.857 106.655 357.598V366.49H65.4792V357.901C57.3183 356.184 49.8796 353.338 43.163 349.363C31.2653 342.435 22.097 332.706 15.6582 320.179C9.2194 307.721 6 293.164 6 276.507C6 259.99 9.2194 245.468 15.6582 232.94C22.097 220.483 31.2653 210.754 43.163 203.756C54.9908 196.827 69.0582 193.363 85.3651 193.363ZM65.4792 318.355C61.0513 314.192 57.6718 308.711 55.3407 301.912C52.7512 294.564 51.4565 286.2 51.4565 276.822C51.4565 267.444 52.7512 259.08 55.3408 251.732C57.8603 244.383 61.6046 238.574 66.5736 234.305C71.5427 230.106 77.7365 228.006 85.1552 228.006C92.6438 228.006 98.9426 230.106 104.052 234.305C109.091 238.574 112.905 244.383 115.494 251.732C118.014 259.08 119.274 267.444 119.274 276.822C119.274 286.2 118.014 294.564 115.494 301.912C113.371 307.937 110.425 312.927 106.655 316.882V297.862H65.4792V318.355Z"/>
</mask>
<path fill-rule="evenodd" clip-rule="evenodd" d="M255.52 6.46484H296.696V15.0536C304.859 16.7709 312.3 19.6171 319.018 23.5923C330.916 30.521 340.084 40.2492 346.523 52.7768C352.962 65.2345 356.181 79.7918 356.181 96.4486C356.181 112.966 352.962 127.488 346.523 140.015C340.084 152.473 330.916 162.201 319.018 169.2C307.19 176.129 293.123 179.593 276.816 179.593C260.509 179.593 246.407 176.129 234.509 169.2C222.681 162.201 213.548 152.473 207.109 140.015C200.67 127.488 197.451 112.966 197.451 96.4486C197.451 79.7918 200.67 65.2345 207.109 52.7768C213.548 40.2492 222.681 30.521 234.509 23.5923C240.88 19.8444 247.884 17.1 255.52 15.3592V6.46484ZM255.52 75.092V56.0795C251.753 60.0335 248.808 65.0215 246.686 71.0434C244.167 78.392 242.907 86.7555 242.907 96.1337C242.907 105.512 244.167 113.875 246.686 121.224C249.276 128.573 253.09 134.382 258.129 138.651C263.238 142.85 269.537 144.95 277.026 144.95C284.444 144.95 290.638 142.85 295.607 138.651C300.576 134.382 304.321 128.573 306.84 121.224C309.43 113.875 310.724 105.512 310.724 96.1337C310.724 86.7555 309.43 78.392 306.84 71.0434C304.508 64.2416 301.127 58.7588 296.696 54.5952V75.092H255.52ZM57.3067 176.444V83.2215C57.3767 76.2928 58.6715 70.3789 61.191 65.4798C63.7805 60.5107 67.3499 56.7314 71.899 54.1419C76.5181 51.5524 81.8371 50.2577 87.856 50.2577C96.8143 50.2577 103.848 53.0571 108.957 58.6561C114.066 64.185 116.586 71.8836 116.516 81.7517V176.444H161.237V73.7732C161.237 61.2456 158.928 50.4676 154.309 41.4393C149.689 32.341 143.216 25.3423 134.887 20.4432C126.559 15.5442 116.796 13.0946 105.598 13.0946C93.6299 13.0946 83.4468 15.8591 75.0484 21.3881C66.65 26.847 60.6661 34.2657 57.0968 43.6439H55.2071V15.1942H12.5851V176.444H57.3067ZM304.873 196.511V289.734C304.803 296.662 303.509 302.576 300.989 307.475C298.4 312.444 294.83 316.224 290.281 318.813C285.662 321.403 280.343 322.697 274.324 322.697C265.366 322.697 258.332 319.898 253.223 314.299C248.114 308.77 245.594 301.071 245.664 291.203V196.511H200.943L200.943 299.182C200.943 311.709 203.252 322.487 207.872 331.516C212.491 340.614 218.964 347.613 227.293 352.512C235.621 357.411 245.384 359.86 256.582 359.86C268.55 359.86 278.733 357.096 287.132 351.567C295.53 346.108 301.514 338.689 305.083 329.311H306.973L306.973 357.761L349.595 357.761L349.595 196.511H304.873ZM85.3651 193.363C101.672 193.363 115.774 196.827 127.672 203.756C139.5 210.754 148.633 220.483 155.072 232.94C161.511 245.468 164.73 259.99 164.73 276.507C164.73 293.164 161.511 307.721 155.072 320.179C148.633 332.706 139.5 342.435 127.672 349.363C121.299 353.112 114.294 355.857 106.655 357.598V366.49H65.4792V357.901C57.3183 356.184 49.8796 353.338 43.163 349.363C31.2653 342.435 22.097 332.706 15.6582 320.179C9.2194 307.721 6 293.164 6 276.507C6 259.99 9.2194 245.468 15.6582 232.94C22.097 220.483 31.2653 210.754 43.163 203.756C54.9908 196.827 69.0582 193.363 85.3651 193.363ZM65.4792 318.355C61.0513 314.192 57.6718 308.711 55.3407 301.912C52.7512 294.564 51.4565 286.2 51.4565 276.822C51.4565 267.444 52.7512 259.08 55.3408 251.732C57.8603 244.383 61.6046 238.574 66.5736 234.305C71.5427 230.106 77.7365 228.006 85.1552 228.006C92.6438 228.006 98.9426 230.106 104.052 234.305C109.091 238.574 112.905 244.383 115.494 251.732C118.014 259.08 119.274 267.444 119.274 276.822C119.274 286.2 118.014 294.564 115.494 301.912C113.371 307.937 110.425 312.927 106.655 316.882V297.862H65.4792V318.355Z" fill="white"/>
<path d="M296.696 6.46484H302.648C302.648 3.17765 299.983 0.512846 296.696 0.512846V6.46484ZM255.52 6.46484V0.512846C252.233 0.512846 249.568 3.17765 249.568 6.46484L255.52 6.46484ZM296.696 15.0536H290.744C290.744 17.8685 292.716 20.2985 295.471 20.8781L296.696 15.0536ZM319.018 23.5923L315.987 28.7147C315.999 28.7218 316.011 28.7288 316.023 28.7357L319.018 23.5923ZM346.523 52.7768L341.229 55.4976L341.235 55.5097L346.523 52.7768ZM346.523 140.015L351.81 142.748L351.816 142.736L346.523 140.015ZM319.018 169.2L322.026 174.336L322.036 174.33L319.018 169.2ZM234.509 169.2L231.478 174.322C231.49 174.329 231.502 174.336 231.513 174.343L234.509 169.2ZM207.109 140.015L201.815 142.736L201.821 142.748L207.109 140.015ZM207.109 52.7768L212.396 55.5097L212.403 55.4976L207.109 52.7768ZM234.509 23.5923L237.517 28.728L237.527 28.7225L234.509 23.5923ZM255.52 15.3592L256.843 21.1623C259.551 20.5449 261.472 18.1367 261.472 15.3592H255.52ZM255.52 56.0795H261.472C261.472 53.6459 259.99 51.4574 257.731 50.5534C255.471 49.6494 252.889 50.212 251.21 51.974L255.52 56.0795ZM255.52 75.092H249.568C249.568 78.3792 252.233 81.044 255.52 81.044V75.092ZM246.686 71.0434L241.073 69.0653C241.067 69.0812 241.062 69.0971 241.056 69.113L246.686 71.0434ZM246.686 121.224L241.056 123.154C241.062 123.17 241.067 123.186 241.073 123.202L246.686 121.224ZM258.129 138.651L254.282 143.192C254.304 143.211 254.327 143.23 254.35 143.249L258.129 138.651ZM295.607 138.651L299.449 143.197C299.461 143.186 299.474 143.176 299.486 143.165L295.607 138.651ZM306.84 121.224L301.227 119.246C301.221 119.262 301.215 119.278 301.21 119.294L306.84 121.224ZM306.84 71.0434L301.21 72.9738C301.215 72.9897 301.221 73.0057 301.227 73.0216L306.84 71.0434ZM296.696 54.5952L300.772 50.2578C299.042 48.6323 296.512 48.19 294.333 49.1323C292.155 50.0747 290.744 52.2215 290.744 54.5952H296.696ZM296.696 75.092V81.044C299.983 81.044 302.648 78.3792 302.648 75.092H296.696ZM57.3067 83.2215L51.3551 83.1613C51.3549 83.1814 51.3548 83.2014 51.3548 83.2215H57.3067ZM57.3067 176.444V182.396C60.5939 182.396 63.2587 179.731 63.2587 176.444H57.3067ZM61.191 65.4798L55.9127 62.7291C55.9078 62.7386 55.9029 62.7481 55.898 62.7577L61.191 65.4798ZM71.899 54.1419L68.9884 48.9501C68.9771 48.9564 68.9658 48.9628 68.9546 48.9692L71.899 54.1419ZM108.957 58.6561L104.56 62.668C104.569 62.6772 104.577 62.6864 104.586 62.6955L108.957 58.6561ZM116.516 81.7517L110.564 81.7095C110.564 81.7236 110.564 81.7377 110.564 81.7517H116.516ZM116.516 176.444H110.564C110.564 179.731 113.228 182.396 116.516 182.396V176.444ZM161.237 176.444V182.396C164.524 182.396 167.189 179.731 167.189 176.444H161.237ZM154.309 41.4393L149.001 44.1337C149.004 44.1393 149.007 44.1448 149.01 44.1503L154.309 41.4393ZM134.887 20.4432L137.905 15.313V15.313L134.887 20.4432ZM75.0484 21.3881L78.2922 26.3785C78.3019 26.3722 78.3116 26.3658 78.3213 26.3595L75.0484 21.3881ZM57.0968 43.6439V49.5959C59.5672 49.5959 61.7808 48.0699 62.6595 45.7611L57.0968 43.6439ZM55.2071 43.6439H49.2551C49.2551 46.9311 51.9199 49.5959 55.2071 49.5959V43.6439ZM55.2071 15.1942H61.1591C61.1591 11.907 58.4943 9.24223 55.2071 9.24223V15.1942ZM12.5851 15.1942V9.24223C9.29795 9.24223 6.63315 11.907 6.63315 15.1942H12.5851ZM12.5851 176.444H6.63315C6.63315 179.731 9.29795 182.396 12.5851 182.396V176.444ZM304.873 289.734L310.825 289.794C310.825 289.774 310.825 289.754 310.825 289.734H304.873ZM304.873 196.511V190.559C301.586 190.559 298.921 193.224 298.921 196.511H304.873ZM300.989 307.475L306.267 310.226C306.272 310.216 306.277 310.207 306.282 310.197L300.989 307.475ZM290.281 318.813L293.192 324.005C293.203 323.999 293.214 323.992 293.226 323.986L290.281 318.813ZM253.223 314.299L257.62 310.287C257.611 310.278 257.603 310.269 257.594 310.259L253.223 314.299ZM245.664 291.203L251.616 291.245C251.616 291.231 251.616 291.217 251.616 291.203H245.664ZM245.664 196.511H251.616C251.616 193.224 248.952 190.559 245.664 190.559V196.511ZM200.943 196.511V190.559C197.656 190.559 194.991 193.224 194.991 196.511H200.943ZM200.943 299.182H194.991H200.943ZM207.872 331.516L213.179 328.821C213.176 328.816 213.173 328.81 213.17 328.805L207.872 331.516ZM227.293 352.512L230.311 347.382L227.293 352.512ZM287.132 351.567L283.888 346.577C283.878 346.583 283.868 346.589 283.859 346.596L287.132 351.567ZM305.083 329.311V323.359C302.613 323.359 300.399 324.885 299.521 327.194L305.083 329.311ZM306.973 329.311H312.925C312.925 327.733 312.298 326.219 311.182 325.102C310.065 323.986 308.552 323.359 306.973 323.359V329.311ZM306.973 357.761H301.021C301.021 359.339 301.648 360.853 302.764 361.969C303.88 363.086 305.394 363.713 306.973 363.713V357.761ZM349.595 357.761V363.713C351.173 363.713 352.687 363.086 353.804 361.969C354.92 360.853 355.547 359.339 355.547 357.761H349.595ZM349.595 196.511H355.547C355.547 194.932 354.92 193.419 353.804 192.302C352.687 191.186 351.174 190.559 349.595 190.559V196.511ZM127.672 203.756L130.703 198.633C130.691 198.626 130.679 198.619 130.667 198.612L127.672 203.756ZM155.072 232.94L160.366 230.219L160.36 230.207L155.072 232.94ZM164.73 276.507H158.778H164.73ZM155.072 320.179L149.785 317.446L149.778 317.458L155.072 320.179ZM127.672 349.363L124.664 344.228L124.654 344.233L127.672 349.363ZM106.655 357.598L105.333 351.795C102.625 352.412 100.703 354.82 100.703 357.598H106.655ZM106.655 366.49V372.442C109.943 372.442 112.607 369.777 112.607 366.49H106.655ZM65.4792 366.49H59.5272C59.5272 369.777 62.192 372.442 65.4792 372.442V366.49ZM65.4792 357.901H71.4312C71.4312 355.086 69.4594 352.656 66.7049 352.077L65.4792 357.901ZM43.163 349.363L46.194 344.241C46.1822 344.234 46.1702 344.227 46.1583 344.22L43.163 349.363ZM15.6582 320.179L20.9519 317.458L20.9457 317.446L15.6582 320.179ZM15.6582 232.94L10.3707 230.207L10.3645 230.219L15.6582 232.94ZM43.163 203.756L40.1546 198.62L40.1453 198.625L43.163 203.756ZM65.4792 318.355L61.4022 322.692C63.1318 324.318 65.6624 324.761 67.8414 323.818C70.0204 322.876 71.4312 320.729 71.4312 318.355H65.4792ZM55.3407 301.912L60.971 299.982C60.9655 299.966 60.96 299.95 60.9544 299.934L55.3407 301.912ZM55.3408 251.732L60.9544 253.71C60.96 253.694 60.9655 253.678 60.971 253.662L55.3408 251.732ZM66.5736 234.305L62.7319 229.759C62.7195 229.769 62.7072 229.78 62.6949 229.79L66.5736 234.305ZM104.052 234.305L107.899 229.764C107.877 229.745 107.854 229.726 107.831 229.707L104.052 234.305ZM115.494 251.732L121.125 249.801C121.119 249.785 121.114 249.769 121.108 249.754L115.494 251.732ZM119.274 276.822H113.322H119.274ZM115.494 301.912L121.108 303.89C121.114 303.875 121.119 303.859 121.125 303.843L115.494 301.912ZM106.655 316.882H100.703C100.703 319.315 102.185 321.504 104.444 322.408C106.703 323.312 109.285 322.75 110.964 320.989L106.655 316.882ZM106.655 297.862H112.607C112.607 294.575 109.943 291.91 106.655 291.91V297.862ZM65.4792 297.862V291.91C62.192 291.91 59.5272 294.575 59.5272 297.862H65.4792ZM296.696 0.512846H255.52V12.4168H296.696V0.512846ZM302.648 15.0536V6.46484H290.744V15.0536H302.648ZM322.049 18.4699C314.734 14.1416 306.677 11.071 297.921 9.22905L295.471 20.8781C303.042 22.4707 309.866 25.0927 315.987 28.7147L322.049 18.4699ZM351.816 50.056C344.871 36.5427 334.916 25.963 322.013 18.4489L316.023 28.7357C326.915 35.079 335.297 43.9557 341.229 55.4976L351.816 50.056ZM362.133 96.4486C362.133 79.0186 358.761 63.4913 351.81 50.044L341.235 55.5097C347.163 66.9777 350.229 80.565 350.229 96.4486H362.133ZM351.816 142.736C358.757 129.233 362.133 113.749 362.133 96.4486H350.229C350.229 112.182 347.166 125.743 341.229 137.295L351.816 142.736ZM322.036 174.33C334.917 166.753 344.865 156.186 351.81 142.748L341.235 137.283C335.303 148.76 326.914 157.65 316 164.07L322.036 174.33ZM276.816 185.545C293.979 185.545 309.127 181.892 322.026 174.336L316.009 164.064C305.254 170.365 292.267 173.641 276.816 173.641V185.545ZM231.513 174.343C244.476 181.892 259.652 185.545 276.816 185.545V173.641C261.366 173.641 248.337 170.365 237.504 164.057L231.513 174.343ZM201.821 142.748C208.762 156.177 218.668 166.743 231.478 174.322L237.54 164.078C226.694 157.66 218.333 148.769 212.396 137.283L201.821 142.748ZM191.499 96.4486C191.499 113.749 194.875 129.233 201.815 142.736L212.403 137.295C206.465 125.743 203.403 112.182 203.403 96.4486H191.499ZM201.821 50.044C194.871 63.4913 191.499 79.0186 191.499 96.4486H203.403C203.403 80.565 206.469 66.9777 212.396 55.5097L201.821 50.044ZM231.5 18.4566C218.669 25.9733 208.756 36.552 201.815 50.056L212.403 55.4976C218.34 43.9464 226.693 35.0688 237.517 28.728L231.5 18.4566ZM254.197 9.55607C246 11.4247 238.42 14.3862 231.491 18.4621L237.527 28.7225C243.34 25.3026 249.767 22.7753 256.843 21.1623L254.197 9.55607ZM249.568 6.46484V15.3592H261.472V6.46484H249.568ZM249.568 56.0795V75.092H261.472V56.0795H249.568ZM252.3 73.0216C254.189 67.66 256.732 63.4356 259.829 60.185L251.21 51.974C246.773 56.6314 243.428 62.383 241.073 69.0653L252.3 73.0216ZM248.859 96.1337C248.859 87.2805 250.049 79.5876 252.317 72.9738L241.056 69.113C238.285 77.1964 236.955 86.2304 236.955 96.1337H248.859ZM252.317 119.294C250.049 112.68 248.859 104.987 248.859 96.1337H236.955C236.955 106.037 238.285 115.071 241.056 123.154L252.317 119.294ZM261.977 134.109C257.878 130.637 254.602 125.779 252.3 119.246L241.073 123.202C243.95 131.366 248.303 138.126 254.282 143.192L261.977 134.109ZM277.026 138.998C270.723 138.998 265.812 137.261 261.909 134.053L254.35 143.249C260.664 148.439 268.352 150.902 277.026 150.902V138.998ZM291.766 134.105C288.02 137.269 283.247 138.998 277.026 138.998V150.902C285.642 150.902 293.256 148.43 299.449 143.197L291.766 134.105ZM301.21 119.294C298.97 125.828 295.756 130.676 291.729 134.136L299.486 143.165C305.396 138.087 309.672 131.318 312.47 123.154L301.21 119.294ZM304.772 96.1337C304.772 104.971 303.552 112.647 301.227 119.246L312.454 123.202C315.308 115.104 316.676 106.053 316.676 96.1337H304.772ZM301.227 73.0216C303.552 79.6202 304.772 87.2961 304.772 96.1337H316.676C316.676 86.2148 315.308 77.1638 312.454 69.0652L301.227 73.0216ZM292.62 58.9326C296.226 62.3211 299.135 66.9217 301.21 72.9738L312.47 69.113C309.881 61.5615 306.028 55.1966 300.772 50.2578L292.62 58.9326ZM302.648 75.092V54.5952H290.744V75.092H302.648ZM255.52 81.044H296.696V69.14H255.52V81.044ZM51.3548 83.2215V176.444H63.2587V83.2215H51.3548ZM55.898 62.7577C52.8597 68.6655 51.432 75.539 51.3551 83.1613L63.2584 83.2816C63.3214 77.0465 64.4833 72.0923 66.4841 68.2019L55.898 62.7577ZM68.9546 48.9692C63.34 52.1653 58.9922 56.8199 55.9127 62.7291L66.4693 68.2304C68.5689 64.2015 71.3598 61.2976 74.8435 59.3146L68.9546 48.9692ZM87.856 44.3057C80.9592 44.3057 74.6123 45.7973 68.9884 48.9501L74.8096 59.3337C78.424 57.3075 82.7151 56.2096 87.856 56.2096V44.3057ZM113.354 54.6441C106.911 47.5836 98.1553 44.3057 87.856 44.3057V56.2096C95.4734 56.2096 100.785 58.5307 104.56 62.668L113.354 54.6441ZM122.467 81.7939C122.545 70.8976 119.751 61.5666 113.328 54.6167L104.586 62.6955C108.382 66.8035 110.626 72.8695 110.564 81.7095L122.467 81.7939ZM122.468 176.444V81.7517H110.564V176.444H122.468ZM161.237 170.492H116.516V182.396H161.237V170.492ZM155.285 73.7732V176.444H167.189V73.7732H155.285ZM149.01 44.1503C153.11 52.1648 155.285 61.9703 155.285 73.7732H167.189C167.189 60.5208 164.745 48.7704 159.607 38.7283L149.01 44.1503ZM131.869 25.5735C139.162 29.863 144.867 35.9898 149.001 44.1337L159.616 38.7449C154.512 28.6922 147.27 20.8216 137.905 15.313L131.869 25.5735ZM105.598 19.0466C115.905 19.0466 124.592 21.2929 131.869 25.5735L137.905 15.313C128.525 9.7954 117.686 7.14264 105.598 7.14264V19.0466ZM78.3213 26.3595C85.5758 21.5836 94.5684 19.0466 105.598 19.0466V7.14264C92.6915 7.14264 81.3179 10.1347 71.7756 16.4167L78.3213 26.3595ZM62.6595 45.7611C65.7808 37.5599 70.9538 31.1484 78.2922 26.3785L71.8046 16.3977C62.3462 22.5457 55.5514 30.9714 51.5341 41.5267L62.6595 45.7611ZM55.2071 49.5959H57.0968V37.6919H55.2071V49.5959ZM49.2551 15.1942V43.6439H61.1591V15.1942H49.2551ZM12.5851 21.1462H55.2071V9.24223H12.5851V21.1462ZM18.5371 176.444V15.1942H6.63315V176.444H18.5371ZM57.3067 170.492H12.5851V182.396H57.3067V170.492ZM310.825 289.734V196.511H298.921V289.734H310.825ZM306.282 310.197C309.32 304.29 310.748 297.416 310.825 289.794L298.922 289.673C298.859 295.909 297.697 300.863 295.696 304.753L306.282 310.197ZM293.226 323.986C298.84 320.79 303.188 316.135 306.267 310.226L295.711 304.725C293.611 308.753 290.82 311.657 287.337 313.64L293.226 323.986ZM274.324 328.649C281.221 328.649 287.568 327.158 293.192 324.005L287.371 313.621C283.756 315.648 279.465 316.745 274.324 316.745V328.649ZM248.826 318.311C255.269 325.371 264.025 328.649 274.324 328.649V316.745C266.707 316.745 261.395 314.424 257.62 310.287L248.826 318.311ZM239.713 291.161C239.635 302.057 242.43 311.388 248.852 318.338L257.594 310.259C253.798 306.151 251.554 300.085 251.616 291.245L239.713 291.161ZM239.712 196.511V291.203H251.616V196.511H239.712ZM200.943 202.463H245.664V190.559H200.943V202.463ZM206.895 299.182L206.895 196.511H194.991L194.991 299.182H206.895ZM213.17 328.805C209.07 320.79 206.895 310.985 206.895 299.182H194.991C194.991 312.434 197.435 324.185 202.573 334.227L213.17 328.805ZM230.311 347.382C223.018 343.092 217.313 336.965 213.179 328.821L202.564 334.21C207.668 344.263 214.91 352.133 224.275 357.642L230.311 347.382ZM256.582 353.908C246.275 353.908 237.588 351.662 230.311 347.382L224.275 357.642C233.655 363.16 244.494 365.812 256.582 365.812V353.908ZM283.859 346.596C276.604 351.371 267.612 353.908 256.582 353.908V365.812C269.489 365.812 280.862 362.82 290.404 356.538L283.859 346.596ZM299.521 327.194C296.399 335.395 291.226 341.807 283.888 346.577L290.375 356.557C299.834 350.409 306.629 341.984 310.646 331.428L299.521 327.194ZM306.973 323.359H305.083V335.263H306.973V323.359ZM312.925 357.761L312.925 329.311H301.021L301.021 357.761H312.925ZM349.595 351.809L306.973 351.809V363.713L349.595 363.713V351.809ZM343.643 196.511L343.643 357.761H355.547L355.547 196.511H343.643ZM304.873 202.463H349.595V190.559H304.873V202.463ZM130.667 198.612C117.705 191.064 102.529 187.411 85.3651 187.411V199.315C100.815 199.315 113.844 202.59 124.677 208.899L130.667 198.612ZM160.36 230.207C153.419 216.779 143.513 206.213 130.703 198.633L124.641 208.878C135.487 215.296 143.848 224.187 149.785 235.673L160.36 230.207ZM170.682 276.507C170.682 259.207 167.306 243.723 160.366 230.219L149.778 235.661C155.716 247.213 158.778 260.773 158.778 276.507H170.682ZM160.36 322.912C167.31 309.464 170.682 293.937 170.682 276.507H158.778C158.778 292.391 155.712 305.978 149.785 317.446L160.36 322.912ZM130.681 354.499C143.512 346.982 153.425 336.404 160.366 322.9L149.778 317.458C143.841 329.009 135.488 337.887 124.664 344.228L130.681 354.499ZM107.978 363.401C116.177 361.532 123.759 358.57 130.69 354.494L124.654 344.233C118.839 347.654 112.41 350.182 105.333 351.795L107.978 363.401ZM100.703 357.598V366.49H112.607V357.598H100.703ZM106.655 360.538H65.4792V372.442H106.655V360.538ZM71.4312 366.49V357.901H59.5272V366.49H71.4312ZM40.132 354.486C47.4452 358.813 55.5003 361.883 64.2535 363.725L66.7049 352.077C59.1363 350.484 52.314 347.862 46.194 344.241L40.132 354.486ZM10.3645 322.9C17.3099 336.413 27.2647 346.993 40.1677 354.507L46.1583 344.22C35.2658 337.877 26.8841 329 20.9519 317.458L10.3645 322.9ZM0.0480027 276.507C0.0480027 293.937 3.42036 309.464 10.3707 322.912L20.9457 317.446C15.0184 305.978 11.952 292.391 11.952 276.507H0.0480027ZM10.3645 230.219C3.42419 243.723 0.0480027 259.207 0.0480027 276.507H11.952C11.952 260.773 15.0146 247.213 20.9519 235.661L10.3645 230.219ZM40.1453 198.625C27.2638 206.203 17.3162 216.769 10.3707 230.207L20.9457 235.673C26.8778 224.196 35.2667 215.306 46.1808 208.886L40.1453 198.625ZM85.3651 187.411C68.2022 187.411 53.0543 191.063 40.1546 198.62L46.1715 208.891C56.9274 202.591 69.9142 199.315 85.3651 199.315V187.411ZM69.5562 314.019C65.9525 310.631 63.0452 306.031 60.971 299.982L49.7105 303.843C52.2985 311.391 56.1501 317.754 61.4022 322.692L69.5562 314.019ZM60.9544 299.934C58.6292 293.335 57.4085 285.66 57.4085 276.822H45.5045C45.5045 286.741 46.8733 295.792 49.7271 303.89L60.9544 299.934ZM57.4085 276.822C57.4085 267.984 58.6292 260.309 60.9544 253.71L49.7271 249.754C46.8733 257.852 45.5045 266.903 45.5045 276.822H57.4085ZM60.971 253.662C63.2113 247.128 66.4246 242.28 70.4524 238.82L62.6949 229.79C56.7845 234.868 52.5093 241.638 49.7105 249.801L60.971 253.662ZM70.4154 238.851C74.1605 235.686 78.9337 233.958 85.1552 233.958V222.054C76.5394 222.054 68.9249 224.525 62.7319 229.759L70.4154 238.851ZM85.1552 233.958C91.4584 233.958 96.3685 235.695 100.272 238.903L107.831 229.707C101.517 224.517 93.8291 222.054 85.1552 222.054V233.958ZM100.204 238.846C104.303 242.319 107.579 247.177 109.881 253.71L121.108 249.754C118.231 241.589 113.878 234.829 107.899 229.764L100.204 238.846ZM109.864 253.662C112.132 260.276 113.322 267.969 113.322 276.822H125.226C125.226 266.919 123.896 257.885 121.125 249.801L109.864 253.662ZM113.322 276.822C113.322 285.675 112.132 293.368 109.864 299.982L121.125 303.843C123.896 295.759 125.226 286.725 125.226 276.822H113.322ZM109.881 299.934C107.991 305.298 105.446 309.524 102.347 312.776L110.964 320.989C115.404 316.33 118.752 310.576 121.108 303.89L109.881 299.934ZM100.703 297.862V316.882H112.607V297.862H100.703ZM65.4792 303.814H106.655V291.91H65.4792V303.814ZM71.4312 318.355V297.862H59.5272V318.355H71.4312Z" fill="white" mask="url(#path-1-outside-1_636_3049)"/>
</svg>
