<svg width="59" height="50" viewBox="0 0 59 50" fill="none" xmlns="http://www.w3.org/2000/svg">
<path d="M8.44796 26.2005C7.743 25.5301 7.08857 24.8834 6.40711 24.2687C6.14745 24.0342 6.07578 23.7784 6.05581 23.4444C5.74328 18.1926 5.87957 12.9349 5.81965 7.68081C5.81142 6.93343 5.77265 6.18606 5.72918 5.43868C5.70333 5.00282 5.80672 4.63446 6.11103 4.30874C6.65972 3.72245 7.19196 3.12076 7.72773 2.52381C8.31519 1.87001 9.09417 1.63667 9.92132 1.58693C10.7802 1.53481 11.6438 1.58693 12.505 1.55376C14.1052 1.49099 15.7067 1.414 17.3046 1.31096C17.8673 1.27424 18.4219 1.12974 18.9835 1.05867C20.7741 0.832447 22.4672 1.18067 24.1003 1.92449C25.4433 2.53684 26.5312 3.45595 27.4712 4.58353C27.8801 5.07388 28.3453 5.51804 28.8188 6.01787C29.0961 5.7265 29.2911 5.48014 29.5261 5.28116C30.1958 4.71263 30.8456 4.11213 31.567 3.61822C33.0944 2.57 34.6371 1.53955 36.2256 0.589639C36.7555 0.273397 37.4381 0.203516 38.0608 0.0637532C38.3416 0.000978589 38.6483 0.0625688 38.9396 0.0341426C40.5481 -0.123386 42.0168 0.272213 43.4243 1.05512C45.7789 2.3651 47.9713 3.86932 49.6644 6.01076C50.4222 6.97015 50.9662 8.05153 51.348 9.21701C52.0013 11.2057 52.1822 13.2595 52.0095 15.3227C51.8051 17.7615 51.0578 20.0296 49.4846 21.9638C49.1039 22.4317 48.7773 22.9457 48.4095 23.4621C48.4941 23.5806 48.5611 23.6954 48.6481 23.7926C49.3753 24.6122 50.1167 25.4188 50.8252 26.2538C50.9873 26.4445 51.126 26.7335 51.1236 26.9763C51.1036 30.2643 51.0508 33.5534 51.0191 36.8414C50.9932 39.5206 50.985 42.1986 50.9674 44.8778C50.9662 45.1135 50.9897 45.3563 50.9439 45.5849C50.9039 45.7874 50.8322 46.0266 50.6912 46.1569C50.2307 46.5786 49.7478 46.9801 49.2437 47.3497C48.3508 48.0023 47.2898 48.1207 46.2371 48.1835C44.3455 48.296 42.4421 48.2676 40.5622 48.4678C39.0936 48.6241 37.6308 48.6644 36.1703 48.5992C35.1517 48.553 34.1236 48.3623 33.1355 48.1018C32.0546 47.8163 31.2051 47.0903 30.4614 46.2671C29.7917 45.5268 29.1537 44.7593 28.4981 44.0072C28.4358 43.9361 28.3477 43.8888 28.222 43.7928C27.7802 44.2097 27.3349 44.6124 26.9096 45.0341C25.5196 46.4069 23.9276 47.5036 22.2087 48.3991C21.2652 48.8906 20.2724 49.3276 19.2549 49.6238C18.5617 49.8263 17.7851 49.7896 17.0472 49.7777C15.4364 49.7493 14.0418 49.0552 12.6871 48.2557C11.0011 47.262 9.3738 46.1925 7.99209 44.7842C7.12499 43.9018 6.54105 42.8358 6.10046 41.6988C5.69276 40.6446 5.39433 39.5632 5.18989 38.4345C4.9408 37.0546 4.97723 35.6854 5.07122 34.3257C5.14054 33.326 5.47657 32.337 5.7562 31.3611C6.26847 29.5714 7.23426 28.0115 8.28229 26.499C8.33634 26.4208 8.37746 26.332 8.45148 26.2005H8.44796ZM39.3814 1.84276C38.8139 1.84276 38.2464 1.8475 37.6801 1.84039C37.3758 1.83684 37.1772 1.96713 37.0186 2.23244C36.8823 2.46222 36.7226 2.71213 36.5087 2.85308C35.9236 3.23802 35.3138 3.58624 34.697 3.91788C33.3623 4.63683 32.2907 5.6353 31.4906 6.92633C30.7927 8.05272 30.3733 9.27268 30.1371 10.5827C29.8598 12.1236 29.9162 13.6562 30.2781 15.1474C30.6834 16.821 31.473 18.3087 32.7313 19.5488C34.066 20.8635 35.6804 21.5955 37.444 21.9591C39.2592 22.3334 41.0827 22.2161 42.8545 21.5481C44.5264 20.918 45.8975 19.8709 47.0055 18.5053C48.3637 16.8305 48.8231 14.8051 48.9253 12.698C48.9559 12.0596 48.8372 11.4058 48.7291 10.7698C48.6116 10.0793 48.4894 9.37809 48.2568 8.72192C47.8244 7.50314 47.0043 6.51415 46.1478 5.57608C45.3418 4.69368 44.4195 3.95105 43.2739 3.52702C42.5725 3.26763 41.9181 2.92059 41.5891 2.17559C41.4822 1.93396 41.2895 1.83447 41.024 1.83921C40.4764 1.84869 39.9289 1.84158 39.3814 1.84158V1.84276ZM19.7742 44.8505C19.8941 44.1553 20.4005 43.8663 20.9915 43.6365C22.768 42.9448 24.1826 41.7698 25.3034 40.2407C26.0366 39.2399 26.5171 38.1182 26.8038 36.8947C27.0294 35.9318 27.1692 34.9641 27.1058 33.9905C27.04 32.9826 26.8861 31.9817 26.5336 31.014C25.804 29.0064 24.5679 27.4311 22.7691 26.2976C21.4791 25.4851 20.0163 25.2068 18.5523 25.0611C17.1224 24.9178 15.689 25.0256 14.2744 25.4413C12.5907 25.9364 11.2572 26.9017 10.2468 28.2875C8.90148 30.1316 8.22825 32.2221 8.21767 34.5318C8.21297 35.4995 8.25645 36.4636 8.53138 37.378C8.90266 38.6121 9.40552 39.7989 10.2656 40.801C11.3559 42.0718 12.6389 43.0561 14.2039 43.6578C14.6704 43.8366 15.071 44.0972 15.2708 44.5947C15.3189 44.7143 15.407 44.8695 15.5104 44.9038C15.8418 45.014 16.1872 45.1395 16.5303 45.1443C17.5995 45.1596 18.6839 45.2888 19.7766 44.8505H19.7742ZM9.33973 3.13853V21.7589H13.8949C13.9114 21.4983 13.9349 21.2875 13.9349 21.0755C13.9384 19.8153 13.9196 18.5539 13.9396 17.2948C13.9819 14.6701 13.8514 12.03 14.5294 9.45271C14.8161 8.36185 15.346 7.50077 16.4809 7.07201C17.1777 6.80907 17.8662 6.91804 18.5594 6.87184C19.7554 6.7913 20.4921 7.62159 20.666 8.51938C20.8693 9.57115 21.0925 10.6383 21.1148 11.7031C21.1806 14.8525 21.1501 18.0043 21.1607 21.156C21.1607 21.3846 21.1806 21.612 21.19 21.8241C21.3158 21.8572 21.3721 21.8856 21.4274 21.8845C22.6387 21.8454 23.8501 21.8027 25.0614 21.7625C25.8416 21.7364 25.9414 21.6417 25.9403 20.867C25.9356 17.283 25.9297 13.6989 25.9238 10.1136C25.9215 8.81194 25.7476 7.53038 25.4503 6.26778C25.1895 5.1639 24.5738 4.3194 23.5587 3.77812C22.6223 3.27947 21.6459 2.95731 20.5885 2.81755C19.4135 2.6612 18.3079 2.85071 17.2247 3.27592C16.1437 3.69995 15.3401 4.50891 14.5012 5.26931C14.3978 5.36288 14.2427 5.39841 14.1111 5.46119C14.0535 5.32735 13.9548 5.19588 13.9443 5.0573C13.9102 4.62617 13.9349 4.1903 13.8855 3.76154C13.8303 3.28303 13.674 3.15985 13.19 3.14919C12.5837 3.13497 11.9763 3.13971 11.37 3.13853C10.7085 3.13734 10.047 3.13853 9.33855 3.13853H9.33973ZM43.187 41.4334L43.3374 41.5377C43.3491 41.7284 43.3668 41.9202 43.3715 42.1109C43.3785 42.3869 43.3621 42.6629 43.382 42.9377C43.4196 43.4636 43.59 43.6388 44.0999 43.6649C44.9976 43.7099 45.8952 43.7549 46.794 43.7739C47.4332 43.7869 47.4684 43.7419 47.4684 43.1165C47.472 37.9003 47.4167 32.6841 47.6729 27.4714C47.6999 26.9112 47.7492 26.3509 47.7939 25.7113C47.7058 25.6675 47.5366 25.5112 47.365 25.5088C45.9645 25.4887 44.564 25.4982 43.1353 25.4982C43.0542 26.2171 42.9356 26.8567 42.9179 27.4975C42.8416 30.4088 42.8063 33.3213 42.7311 36.2326C42.6994 37.4597 42.4597 38.6323 41.3729 39.4045C40.9159 39.729 40.44 40.0571 39.9254 40.2656C38.4485 40.8614 36.3113 40.3615 36.074 38.0649C35.9483 36.8521 35.8707 35.6321 35.839 34.4133C35.7662 31.6584 35.7368 28.9022 35.6863 26.1472C35.6827 25.9388 35.6534 25.7315 35.6357 25.5325H30.9125C30.9125 25.7777 30.9055 25.9719 30.9137 26.165C30.9419 26.8733 30.9913 27.5804 31.0042 28.2887C31.0465 30.6315 31.0618 32.9743 31.1146 35.3159C31.144 36.5939 31.211 37.8719 31.2956 39.1475C31.3261 39.613 31.4154 40.0832 31.5482 40.5297C31.9042 41.7248 32.6867 42.6191 33.663 43.3416C34.153 43.704 34.7005 43.9586 35.3479 43.8994C35.5782 43.8781 35.8155 43.9432 36.0493 43.9397C37.142 43.9207 38.2335 43.8923 39.3262 43.8615C39.4002 43.8591 39.4719 43.8106 39.5459 43.7869C40.4165 43.5097 41.1426 42.991 41.8452 42.4236C42.2764 42.0754 42.737 41.7639 43.1835 41.4358L43.187 41.4334Z" fill="black"/>
<path d="M40.3627 1.90487C40.9102 1.90487 41.4577 1.91198 42.0052 1.9025C42.2708 1.89777 42.4635 1.99726 42.5704 2.23888C42.8994 2.98389 43.5538 3.33211 44.2552 3.59031C45.402 4.01315 46.3243 4.75697 47.1291 5.63937C47.9845 6.57625 48.8057 7.56525 49.2381 8.78521C49.4707 9.44138 49.5929 10.1426 49.7104 10.8331C49.8185 11.4691 49.9384 12.1229 49.9066 12.7613C49.8056 14.8696 49.345 16.895 47.9868 18.5686C46.8788 19.9342 45.5065 20.9824 43.8358 21.6114C42.0652 22.2794 40.2417 22.3966 38.4252 22.0224C36.6617 21.6587 35.0462 20.9268 33.7126 19.6121C32.4543 18.372 31.6635 16.8831 31.2594 15.2107C30.8987 13.7195 30.8411 12.1869 31.1184 10.6459C31.3545 9.33597 31.774 8.11601 32.4719 6.98962C33.272 5.69741 34.3436 4.70012 35.6783 3.98117C36.2951 3.64953 36.9049 3.30013 37.49 2.91637C37.7038 2.77543 37.8636 2.52433 37.9999 2.29573C38.1574 2.03042 38.3559 1.90014 38.6614 1.90369C39.2289 1.9108 39.7952 1.90606 40.3627 1.90606V1.90487ZM38.0598 10.9255C37.9388 9.77776 37.8202 8.66203 37.7027 7.5463L37.5675 7.51787C37.3678 7.92768 37.1551 8.33276 36.9719 8.74968C36.5501 9.71143 36.0836 10.6471 35.9544 11.7238C35.7264 13.6283 36.1482 15.3469 37.2985 16.8594C37.7661 17.4742 38.457 17.8591 39.2007 18.0593C40.4085 18.3838 41.56 18.1742 42.6174 17.5097C43.8123 16.7588 44.603 15.7686 44.549 14.2478C44.5114 13.2067 44.5713 12.1608 44.529 11.1197C44.5055 10.5358 44.408 9.94595 44.2623 9.37979C44.1401 8.90484 43.8781 8.46897 43.434 8.20603C43.2742 8.11127 43.0744 8.0864 42.7783 7.99401C42.7396 8.88589 42.7055 9.64747 42.6738 10.4079C42.6515 10.9338 42.6162 10.9835 42.0945 10.9859C40.902 10.993 39.7083 10.9894 38.5157 10.9859C38.3653 10.9859 38.2149 10.948 38.0575 10.9267L38.0598 10.9255Z" fill="white"/>
<path d="M20.7555 44.913C19.6629 45.3512 18.5796 45.2221 17.5092 45.2067C17.1673 45.202 16.8207 45.0764 16.4894 44.9663C16.386 44.9319 16.2979 44.7768 16.2497 44.6571C16.05 44.1597 15.6493 43.8991 15.1829 43.7203C13.6167 43.1186 12.3348 42.1343 11.2445 40.8634C10.3845 39.8614 9.8816 38.6746 9.51032 37.4404C9.23539 36.526 9.19191 35.5619 9.19661 34.5942C9.20836 32.2858 9.88042 30.1941 11.2257 28.3499C12.2362 26.9642 13.5697 25.9989 15.2534 25.5038C16.668 25.088 18.1002 24.9802 19.5313 25.1236C20.9952 25.2692 22.4592 25.5476 23.7481 26.3601C25.5469 27.4936 26.7829 29.0689 27.5125 31.0765C27.8639 32.0454 28.0178 33.0462 28.0847 34.053C28.1494 35.0266 28.0084 35.9942 27.7828 36.9572C27.4961 38.1807 27.0156 39.3012 26.2824 40.3032C25.1627 41.8323 23.7469 43.0072 21.9704 43.6989C21.3806 43.9287 20.8742 44.2177 20.7532 44.913H20.7555ZM21.0293 39.3189C22.102 38.4342 22.8187 37.3457 22.9021 36.0167C22.9809 34.7766 23.1066 33.5129 22.7282 32.2716C22.5168 31.5787 22.2747 30.9213 21.7249 30.4476C21.2537 30.0413 20.7485 29.6682 20.221 29.3401C19.5042 28.8936 18.6677 28.6153 17.8758 28.8971C16.6656 29.3283 15.6599 30.0922 15.0501 31.3039C14.418 32.5618 14.1818 33.8765 14.2241 35.2812C14.2511 36.166 14.4591 36.9856 14.7963 37.7744C15.016 38.2885 15.3568 38.7492 15.9524 39.0583C16.0312 38.8155 16.1369 38.6237 16.1498 38.4247C16.1933 37.778 16.2004 37.1289 16.225 36.481C16.2438 35.9824 16.2732 35.9421 16.7725 35.9398C17.9651 35.9326 19.1588 35.9362 20.3514 35.9398C20.4818 35.9398 20.6122 35.98 20.7755 36.0061C20.9541 37.1112 20.6886 38.234 21.0281 39.3177L21.0293 39.3189Z" fill="white"/>
<path d="M44.1683 41.4961C43.7206 41.8242 43.2612 42.1357 42.83 42.4839C42.1274 43.0513 41.4013 43.57 40.5307 43.8472C40.4567 43.8709 40.385 43.9194 40.311 43.9218C39.2195 43.9526 38.1268 43.981 37.0341 44C36.8003 44.0035 36.563 43.9384 36.3327 43.9597C35.6865 44.0189 35.139 43.7655 34.6478 43.4018C33.6703 42.6793 32.889 41.7851 32.533 40.59C32.4002 40.1435 32.3109 39.6733 32.2804 39.2078C32.1958 37.9322 32.1276 36.6542 32.0994 35.3762C32.0466 33.0346 32.0301 30.6906 31.989 28.349C31.9761 27.6407 31.9267 26.9336 31.8985 26.2253C31.8903 26.0322 31.8973 25.838 31.8973 25.5928H36.6205C36.637 25.793 36.6664 26.0002 36.6711 26.2075C36.7216 28.9625 36.751 31.7187 36.8238 34.4736C36.8555 35.6924 36.9331 36.9124 37.0588 38.1252C37.2961 40.4218 39.4333 40.9217 40.9102 40.3259C41.4248 40.1186 41.9007 39.7905 42.3577 39.4648C43.4445 38.6926 43.683 37.5212 43.7159 36.2929C43.7911 33.3816 43.8264 30.4691 43.9027 27.5578C43.9192 26.9158 44.039 26.2774 44.1201 25.5584C45.5488 25.5584 46.9493 25.5502 48.3498 25.5691C48.5214 25.5715 48.6906 25.7278 48.7787 25.7716C48.734 26.4112 48.6859 26.9703 48.6577 27.5317C48.4015 32.7444 48.4556 37.9618 48.4532 43.1768C48.4532 43.8022 48.418 43.8472 47.7788 43.8342C46.88 43.8152 45.9824 43.7714 45.0847 43.7252C44.5748 43.6991 44.4044 43.525 44.3668 42.998C44.3469 42.7232 44.3633 42.4472 44.3563 42.1712C44.3516 41.9793 44.3339 41.7887 44.3222 41.598L44.1718 41.4937L44.1683 41.4961Z" fill="white"/>
<path d="M38.0596 10.9254C38.2171 10.9467 38.3675 10.9846 38.5179 10.9846C39.7104 10.9893 40.9041 10.9929 42.0967 10.9846C42.6172 10.9811 42.6536 10.9325 42.6759 10.4066C42.7077 9.6462 42.7417 8.88462 42.7805 7.99274C43.0766 8.08513 43.2763 8.11 43.4361 8.20475C43.8802 8.4677 44.1422 8.90238 44.2644 9.37852C44.4101 9.94468 44.5076 10.5345 44.5311 11.1184C44.5723 12.1596 44.5135 13.2042 44.5511 14.2465C44.6052 15.7673 43.8144 16.7563 42.6195 17.5084C41.5621 18.1729 40.4107 18.3825 39.2029 18.058C38.4591 17.8578 37.7683 17.4729 37.3006 16.8582C36.1504 15.3469 35.7286 13.6271 35.9565 11.7225C36.0858 10.6459 36.551 9.71016 36.974 8.74841C37.1573 8.33149 37.37 7.92641 37.5697 7.5166L37.7048 7.54503C37.8223 8.66076 37.941 9.77767 38.062 10.9242L38.0596 10.9254Z" fill="black"/>
<path d="M21.0466 40.0445C20.707 38.9607 20.9726 37.8379 20.794 36.7328C20.6318 36.7068 20.5014 36.6665 20.3698 36.6665C19.1773 36.6618 17.9835 36.6582 16.791 36.6665C16.2928 36.6701 16.2635 36.7092 16.2435 37.2078C16.2188 37.8557 16.2118 38.5047 16.1683 39.1514C16.1554 39.3504 16.0496 39.5423 15.9709 39.7851C15.3752 39.476 15.0345 39.0152 14.8148 38.5012C14.4776 37.7124 14.2696 36.8927 14.2426 36.008C14.2003 34.6032 14.4353 33.2873 15.0686 32.0307C15.6783 30.819 16.6829 30.055 17.8943 29.6239C18.6862 29.3408 19.5239 29.6204 20.2394 30.0669C20.7669 30.395 21.2722 30.7693 21.7433 31.1743C22.2932 31.6481 22.5352 32.3066 22.7467 32.9983C23.125 34.2396 22.9993 35.5034 22.9206 36.7435C22.836 38.0724 22.1193 39.1597 21.0478 40.0457L21.0466 40.0445Z" fill="black"/>
</svg>
